<svg id="visual" viewBox="0 0 960 540" width="960" height="540" xmlns="http://www.w3.org/2000/svg" xmlns:xlink="http://www.w3.org/1999/xlink" version="1.1"><rect x="0" y="0" width="960" height="540" fill="#E9739B"></rect><path d="M0 309L40 307.2C80 305.3 160 301.7 240 305.7C320 309.7 400 321.3 480 304.2C560 287 640 241 720 226.2C800 211.3 880 227.7 920 235.8L960 244L960 541L920 541C880 541 800 541 720 541C640 541 560 541 480 541C400 541 320 541 240 541C160 541 80 541 40 541L0 541Z" fill="#FFFFFF" stroke-linecap="round" stroke-linejoin="miter"></path></svg>